M48
; DRILL file KiCad 10.0.3 date 2026-08-30T20:23:03
; FORMAT={-:-/ absolute / metric / decimal}
; #@! TF.CreationDate,2026-08-30T20:23:03-05:00
; #@! TF.GenerationSoftware,Kicad,Pcbnew,10.0.3
; #@! TF.FileFunction,Plated,1,2,PTH
FMAT,2
METRIC
; #@! TA.AperFunction,Plated,PTH,ViaDrill
T1C0.300
; #@! TA.AperFunction,Plated,PTH,ComponentDrill
T2C1.000
; #@! TA.AperFunction,Plated,PTH,ComponentDrill
T3C1.500
%
G90
G05
T1
X179.883Y-53.645
X180.238Y-69.748
X194.056Y-74.219
X197.002Y-57.455
X197.968Y-63.144
X199.034Y-65.888
T2
X186.708Y-96.877
X186.708Y-99.377
X186.708Y-101.877
X201.208Y-96.877
X201.208Y-101.877
T3
X113.436Y-58.674
X113.436Y-96.825
X113.487Y-77.724
X119.786Y-56.134
X119.786Y-94.285
X119.837Y-75.184
X132.486Y-96.825
X132.532Y-58.674
X132.625Y-77.761
X138.836Y-94.285
X138.882Y-56.134
X138.975Y-75.221
X151.587Y-58.623
X151.638Y-77.775
X151.638Y-96.825
X157.937Y-56.083
X157.988Y-75.235
X157.988Y-94.285
X170.688Y-58.623
X170.84Y-77.724
X170.891Y-96.926
X177.038Y-56.083
X177.19Y-75.184
X177.241Y-94.386
T3
G00X193.558Y-93.777
M15
G01X194.858Y-93.777
M16
G05
G00X193.558Y-104.977
M15
G01X194.858Y-104.977
M16
G05
M30
