%TF.GenerationSoftware,KiCad,Pcbnew,10.0.3*%
%TF.CreationDate,2026-08-30T20:22:57-05:00*%
%TF.ProjectId,Saxoller,5361786f-6c6c-4657-922e-6b696361645f,rev?*%
%TF.SameCoordinates,Original*%
%TF.FileFunction,Copper,L2,Bot*%
%TF.FilePolarity,Positive*%
%FSLAX46Y46*%
G04 Gerber Fmt 4.6, Leading zero omitted, Abs format (unit mm)*
G04 Created by KiCad (PCBNEW 10.0.3) date 2026-08-30 20:22:57*
%MOMM*%
%LPD*%
G01*
G04 APERTURE LIST*
G04 Aperture macros list*
%AMRoundRect*
0 Rectangle with rounded corners*
0 $1 Rounding radius*
0 $2 $3 $4 $5 $6 $7 $8 $9 X,Y pos of 4 corners*
0 Add a 4 corners polygon primitive as box body*
4,1,4,$2,$3,$4,$5,$6,$7,$8,$9,$2,$3,0*
0 Add four circle primitives for the rounded corners*
1,1,$1+$1,$2,$3*
1,1,$1+$1,$4,$5*
1,1,$1+$1,$6,$7*
1,1,$1+$1,$8,$9*
0 Add four rect primitives between the rounded corners*
20,1,$1+$1,$2,$3,$4,$5,0*
20,1,$1+$1,$4,$5,$6,$7,0*
20,1,$1+$1,$6,$7,$8,$9,0*
20,1,$1+$1,$8,$9,$2,$3,0*%
G04 Aperture macros list end*
%TA.AperFunction,ComponentPad*%
%ADD10C,2.200000*%
%TD*%
%TA.AperFunction,ComponentPad*%
%ADD11R,2.000000X2.000000*%
%TD*%
%TA.AperFunction,ComponentPad*%
%ADD12C,2.000000*%
%TD*%
%TA.AperFunction,ComponentPad*%
%ADD13R,3.200000X2.000000*%
%TD*%
%TA.AperFunction,SMDPad,CuDef*%
%ADD14RoundRect,0.500000X1.000000X0.500000X-1.000000X0.500000X-1.000000X-0.500000X1.000000X-0.500000X0*%
%TD*%
%TA.AperFunction,HeatsinkPad*%
%ADD15RoundRect,0.250000X1.500000X1.500000X-1.500000X1.500000X-1.500000X-1.500000X1.500000X-1.500000X0*%
%TD*%
%TA.AperFunction,SMDPad,CuDef*%
%ADD16RoundRect,0.250000X0.900000X0.400000X-0.900000X0.400000X-0.900000X-0.400000X0.900000X-0.400000X0*%
%TD*%
%TA.AperFunction,SMDPad,CuDef*%
%ADD17C,1.300000*%
%TD*%
%TA.AperFunction,ViaPad*%
%ADD18C,0.600000*%
%TD*%
%TA.AperFunction,Conductor*%
%ADD19C,0.200000*%
%TD*%
G04 APERTURE END LIST*
D10*
%TO.P,SW7,1,1_1*%
%TO.N,/COL 1*%
X157937200Y-56083200D03*
%TO.P,SW7,2,2_2*%
%TO.N,/ROW 3*%
X151587200Y-58623200D03*
%TD*%
%TO.P,SW1,1,1_1*%
%TO.N,/COL 1*%
X119786400Y-56134000D03*
%TO.P,SW1,2,2_2*%
%TO.N,/ROW 1*%
X113436400Y-58674000D03*
%TD*%
%TO.P,SW4,1,1_1*%
%TO.N,/COL 1*%
X138882400Y-56134000D03*
%TO.P,SW4,2,2_2*%
%TO.N,/ROW 2*%
X132532400Y-58674000D03*
%TD*%
%TO.P,SW5,1,1_1*%
%TO.N,/COL 2*%
X138975000Y-75221000D03*
%TO.P,SW5,2,2_2*%
%TO.N,/ROW 2*%
X132625000Y-77761000D03*
%TD*%
%TO.P,SW12,1,1_1*%
%TO.N,/COL 3*%
X177241200Y-94386400D03*
%TO.P,SW12,2,2_2*%
%TO.N,/ROW 4*%
X170891200Y-96926400D03*
%TD*%
D11*
%TO.P,SW13,A,A_A*%
%TO.N,/MOSI*%
X186708400Y-96876800D03*
D12*
%TO.P,SW13,B,B_B*%
%TO.N,/SCK*%
X186708400Y-101876800D03*
%TO.P,SW13,C,C_C*%
%TO.N,GND*%
X186708400Y-99376800D03*
D13*
%TO.P,SW13,MP*%
%TO.N,N/C*%
X194208400Y-93776800D03*
X194208400Y-104976800D03*
D12*
%TO.P,SW13,S1,S1_S1*%
%TO.N,/MISO*%
X201208400Y-101876800D03*
%TO.P,SW13,S2,S2_S2*%
%TO.N,GND*%
X201208400Y-96876800D03*
%TD*%
D10*
%TO.P,SW9,1,1_1*%
%TO.N,/COL 3*%
X157988000Y-94284800D03*
%TO.P,SW9,2,2_2*%
%TO.N,/ROW 3*%
X151638000Y-96824800D03*
%TD*%
%TO.P,SW3,1,1_1*%
%TO.N,/COL 3*%
X119786400Y-94284800D03*
%TO.P,SW3,2,2_2*%
%TO.N,/ROW 1*%
X113436400Y-96824800D03*
%TD*%
%TO.P,SW6,1,1_1*%
%TO.N,/COL 3*%
X138836400Y-94284800D03*
%TO.P,SW6,2,2_2*%
%TO.N,/ROW 2*%
X132486400Y-96824800D03*
%TD*%
%TO.P,SW8,1,1_1*%
%TO.N,/COL 2*%
X157988000Y-75234800D03*
%TO.P,SW8,2,2_2*%
%TO.N,/ROW 3*%
X151638000Y-77774800D03*
%TD*%
%TO.P,SW10,1,1_1*%
%TO.N,/COL 1*%
X177038000Y-56083200D03*
%TO.P,SW10,2,2_2*%
%TO.N,/ROW 4*%
X170688000Y-58623200D03*
%TD*%
%TO.P,SW2,1,1_1*%
%TO.N,/COL 2*%
X119837200Y-75184000D03*
%TO.P,SW2,2,2_2*%
%TO.N,/ROW 1*%
X113487200Y-77724000D03*
%TD*%
%TO.P,SW11,1,1_1*%
%TO.N,/COL 2*%
X177190400Y-75184000D03*
%TO.P,SW11,2,2_2*%
%TO.N,/ROW 4*%
X170840400Y-77724000D03*
%TD*%
D14*
%TO.P,U1,1,PA02_A0_D0_1*%
%TO.N,/COL 1*%
X201540000Y-54238400D03*
%TO.P,U1,2,PA4_A1_D1_2*%
%TO.N,/COL 2*%
X201540000Y-56778400D03*
%TO.P,U1,3,PA10_A2_D2_3*%
%TO.N,/COL 3*%
X201540000Y-59318400D03*
%TO.P,U1,4,PA11_A3_D3_4*%
%TO.N,/ROW 1*%
X201540000Y-61858400D03*
%TO.P,U1,5,PA8_A4_D4_SDA_5*%
%TO.N,/ROW 2*%
X201540000Y-64398400D03*
%TO.P,U1,6,PA9_A5_D5_SCL_6*%
%TO.N,/ROW 3*%
X201540000Y-66938400D03*
%TO.P,U1,7,PB08_A6_D6_TX_7*%
%TO.N,/ROW 4*%
X201540000Y-69478400D03*
%TO.P,U1,8,PB09_A7_D7_RX_8*%
%TO.N,unconnected-(U1-PB09_A7_D7_RX-Pad8)*%
X184540000Y-69478400D03*
%TO.P,U1,9,PA7_A8_D8_SCK_9*%
%TO.N,/SCK*%
X184540000Y-66938400D03*
%TO.P,U1,10,PA5_A9_D9_MISO_10*%
%TO.N,/MISO*%
X184540000Y-64398400D03*
%TO.P,U1,11,PA6_A10_D10_MOSI_11*%
%TO.N,/MOSI*%
X184540000Y-61858400D03*
%TO.P,U1,12,3V3_12*%
%TO.N,+3V3*%
X184540000Y-59318400D03*
%TO.P,U1,13,GND_13*%
%TO.N,GND*%
X184540000Y-56778400D03*
%TO.P,U1,14,5V_14*%
%TO.N,unconnected-(U1-5V-Pad14)*%
X184540000Y-54238400D03*
D15*
%TO.P,U1,15*%
%TO.N,N/C*%
X190940000Y-62458400D03*
D16*
%TO.P,U1,16*%
X197540000Y-61458400D03*
%TO.P,U1,17*%
X197540000Y-59558400D03*
D17*
%TO.P,U1,18*%
X194310000Y-53238400D03*
%TO.P,U1,19*%
X194310000Y-55818400D03*
%TO.P,U1,20*%
X194310000Y-58358400D03*
%TO.P,U1,21*%
X191770000Y-58358400D03*
%TO.P,U1,22*%
X191770000Y-55818400D03*
%TO.P,U1,23*%
X191770000Y-53238400D03*
%TD*%
D18*
%TO.N,/COL 1*%
X179882800Y-53644800D03*
%TO.N,/ROW 3*%
X199034400Y-65887600D03*
%TO.N,/ROW 1*%
X197967600Y-63144400D03*
%TO.N,/COL 2*%
X197002400Y-57454800D03*
%TO.N,/SCK*%
X180238400Y-69748400D03*
%TO.N,/MISO*%
X194056000Y-74218800D03*
%TD*%
%TO.N,/COL 1*%
D19*
X201540000Y-54238400D02*
X201540000Y-53813600D01*
X201540000Y-53813600D02*
X199847200Y-52120800D01*
X179882800Y-53644800D02*
X181406800Y-52120800D01*
X181406800Y-52120800D02*
X199847200Y-52120800D01*
%TO.N,/ROW 3*%
X199034400Y-66649600D02*
X199066400Y-66649600D01*
X151638000Y-96824800D02*
X151638000Y-77774800D01*
X199066400Y-66649600D02*
X199355200Y-66938400D01*
X199034400Y-65887600D02*
X199034400Y-66649600D01*
X199355200Y-66938400D02*
X201540000Y-66938400D01*
%TO.N,/ROW 1*%
X197967600Y-63144400D02*
X198678800Y-63144400D01*
X198678800Y-63144400D02*
X199964800Y-61858400D01*
X199964800Y-61858400D02*
X201540000Y-61858400D01*
%TO.N,/ROW 2*%
X190804800Y-57864558D02*
X190804800Y-58736703D01*
X151007301Y-60023200D02*
X153213798Y-60023200D01*
X173524598Y-58813200D02*
X177326558Y-58813200D01*
X183201358Y-52938400D02*
X185878642Y-52938400D01*
X132625000Y-96686200D02*
X132486400Y-96824800D01*
X149658101Y-58674000D02*
X151007301Y-60023200D01*
X185878642Y-52938400D02*
X190804800Y-57864558D01*
X132625000Y-77761000D02*
X132625000Y-96686200D01*
X165370944Y-58813200D02*
X168990944Y-62433200D01*
X193283071Y-59308400D02*
X198373071Y-64398400D01*
X190804800Y-58736703D02*
X191376497Y-59308400D01*
X177326558Y-58813200D02*
X183201358Y-52938400D01*
X168990944Y-62433200D02*
X169904598Y-62433200D01*
X191376497Y-59308400D02*
X193283071Y-59308400D01*
X132532400Y-58674000D02*
X149658101Y-58674000D01*
X169904598Y-62433200D02*
X173524598Y-58813200D01*
X198373071Y-64398400D02*
X201540000Y-64398400D01*
X153213798Y-60023200D02*
X154423798Y-58813200D01*
X154423798Y-58813200D02*
X165370944Y-58813200D01*
%TO.N,/COL 2*%
X119837200Y-75184000D02*
X177190400Y-75184000D01*
X201540000Y-56778400D02*
X197678800Y-56778400D01*
X197678800Y-56778400D02*
X197002400Y-57454800D01*
%TO.N,/COL 3*%
X201638642Y-59318400D02*
X201540000Y-59318400D01*
X177241200Y-94386400D02*
X179270642Y-94386400D01*
X179270642Y-94386400D02*
X203340000Y-70317042D01*
X203340000Y-70317042D02*
X203340000Y-61019758D01*
X203340000Y-61019758D02*
X201638642Y-59318400D01*
%TO.N,/ROW 4*%
X170840400Y-77724000D02*
X170840400Y-96875600D01*
X170840400Y-77724000D02*
X193294400Y-77724000D01*
X193294400Y-77724000D02*
X201540000Y-69478400D01*
X170840400Y-96875600D02*
X170891200Y-96926400D01*
%TO.N,/MOSI*%
X168370400Y-96385499D02*
X168370400Y-78214101D01*
X177770299Y-76584000D02*
X178590400Y-75763899D01*
X183040000Y-61858400D02*
X184540000Y-61858400D01*
X170311301Y-98326400D02*
X168370400Y-96385499D01*
X176277301Y-76250800D02*
X176610501Y-76584000D01*
X178590400Y-75763899D02*
X178590400Y-74604101D01*
X178409600Y-66488800D02*
X183040000Y-61858400D01*
X178409600Y-74423301D02*
X178409600Y-66488800D01*
X172920699Y-96876800D02*
X171471099Y-98326400D01*
X186708400Y-96876800D02*
X172920699Y-96876800D01*
X176610501Y-76584000D02*
X177770299Y-76584000D01*
X170333701Y-76250800D02*
X176277301Y-76250800D01*
X168370400Y-78214101D02*
X170333701Y-76250800D01*
X171471099Y-98326400D02*
X170311301Y-98326400D01*
X178590400Y-74604101D02*
X178409600Y-74423301D01*
%TO.N,/SCK*%
X183048400Y-66938400D02*
X184540000Y-66938400D01*
X180238400Y-69748400D02*
X183048400Y-66938400D01*
%TO.N,GND*%
X158567899Y-77794598D02*
X156574200Y-75800899D01*
X156574200Y-75800899D02*
X140375000Y-75800899D01*
X182740000Y-60157042D02*
X182740000Y-57078400D01*
X170274144Y-101816400D02*
X158567899Y-90110155D01*
X138395101Y-76621000D02*
X137538000Y-75763899D01*
X140375000Y-75800899D02*
X139554899Y-76621000D01*
X158567899Y-90110155D02*
X158567899Y-77794598D01*
X119257301Y-73784000D02*
X169113042Y-73784000D01*
X182740000Y-57078400D02*
X183040000Y-56778400D01*
X118437200Y-75763899D02*
X118437200Y-74604101D01*
X184268800Y-101816400D02*
X170274144Y-101816400D01*
X183040000Y-56778400D02*
X184540000Y-56778400D01*
X137538000Y-75763899D02*
X121237200Y-75763899D01*
X120417099Y-76584000D02*
X119257301Y-76584000D01*
X169113042Y-73784000D02*
X182740000Y-60157042D01*
X121237200Y-75763899D02*
X120417099Y-76584000D01*
X139554899Y-76621000D02*
X138395101Y-76621000D01*
X118437200Y-74604101D02*
X119257301Y-73784000D01*
X186708400Y-99376800D02*
X184268800Y-101816400D01*
X119257301Y-76584000D02*
X118437200Y-75763899D01*
%TO.N,/MISO*%
X194056000Y-74117200D02*
X193852800Y-73914000D01*
X193852800Y-73914000D02*
X193852800Y-73612558D01*
X193852800Y-73612558D02*
X184638642Y-64398400D01*
X184638642Y-64398400D02*
X184540000Y-64398400D01*
X194056000Y-74218800D02*
X194056000Y-74117200D01*
%TD*%
M02*
