%TF.GenerationSoftware,KiCad,Pcbnew,10.0.3*%
%TF.CreationDate,2026-08-30T20:22:57-05:00*%
%TF.ProjectId,Saxoller,5361786f-6c6c-4657-922e-6b696361645f,rev?*%
%TF.SameCoordinates,Original*%
%TF.FileFunction,Soldermask,Bot*%
%TF.FilePolarity,Negative*%
%FSLAX46Y46*%
G04 Gerber Fmt 4.6, Leading zero omitted, Abs format (unit mm)*
G04 Created by KiCad (PCBNEW 10.0.3) date 2026-08-30 20:22:57*
%MOMM*%
%LPD*%
G01*
G04 APERTURE LIST*
G04 Aperture macros list*
%AMRoundRect*
0 Rectangle with rounded corners*
0 $1 Rounding radius*
0 $2 $3 $4 $5 $6 $7 $8 $9 X,Y pos of 4 corners*
0 Add a 4 corners polygon primitive as box body*
4,1,4,$2,$3,$4,$5,$6,$7,$8,$9,$2,$3,0*
0 Add four circle primitives for the rounded corners*
1,1,$1+$1,$2,$3*
1,1,$1+$1,$4,$5*
1,1,$1+$1,$6,$7*
1,1,$1+$1,$8,$9*
0 Add four rect primitives between the rounded corners*
20,1,$1+$1,$2,$3,$4,$5,0*
20,1,$1+$1,$4,$5,$6,$7,0*
20,1,$1+$1,$6,$7,$8,$9,0*
20,1,$1+$1,$8,$9,$2,$3,0*%
G04 Aperture macros list end*
%ADD10C,1.700000*%
%ADD11C,4.000000*%
%ADD12C,2.200000*%
%ADD13R,2.000000X2.000000*%
%ADD14C,2.000000*%
%ADD15R,3.200000X2.000000*%
%ADD16RoundRect,0.500000X1.000000X0.500000X-1.000000X0.500000X-1.000000X-0.500000X1.000000X-0.500000X0*%
%ADD17RoundRect,0.250000X1.500000X1.500000X-1.500000X1.500000X-1.500000X-1.500000X1.500000X-1.500000X0*%
%ADD18RoundRect,0.250000X0.900000X0.400000X-0.900000X0.400000X-0.900000X-0.400000X0.900000X-0.400000X0*%
%ADD19C,1.300000*%
G04 APERTURE END LIST*
D10*
%TO.C,SW7*%
X150317200Y-61163200D03*
D11*
X155397200Y-61163200D03*
D10*
X160477200Y-61163200D03*
D12*
X157937200Y-56083200D03*
X151587200Y-58623200D03*
%TD*%
D10*
%TO.C,SW1*%
X112166400Y-61214000D03*
D11*
X117246400Y-61214000D03*
D10*
X122326400Y-61214000D03*
D12*
X119786400Y-56134000D03*
X113436400Y-58674000D03*
%TD*%
D10*
%TO.C,SW4*%
X131262400Y-61214000D03*
D11*
X136342400Y-61214000D03*
D10*
X141422400Y-61214000D03*
D12*
X138882400Y-56134000D03*
X132532400Y-58674000D03*
%TD*%
D10*
%TO.C,SW5*%
X131355000Y-80301000D03*
D11*
X136435000Y-80301000D03*
D10*
X141515000Y-80301000D03*
D12*
X138975000Y-75221000D03*
X132625000Y-77761000D03*
%TD*%
D10*
%TO.C,SW12*%
X169621200Y-99466400D03*
D11*
X174701200Y-99466400D03*
D10*
X179781200Y-99466400D03*
D12*
X177241200Y-94386400D03*
X170891200Y-96926400D03*
%TD*%
D13*
%TO.C,SW13*%
X186708400Y-96876800D03*
D14*
X186708400Y-101876800D03*
X186708400Y-99376800D03*
D15*
X194208400Y-93776800D03*
X194208400Y-104976800D03*
D14*
X201208400Y-101876800D03*
X201208400Y-96876800D03*
%TD*%
D10*
%TO.C,SW9*%
X150368000Y-99364800D03*
D11*
X155448000Y-99364800D03*
D10*
X160528000Y-99364800D03*
D12*
X157988000Y-94284800D03*
X151638000Y-96824800D03*
%TD*%
D10*
%TO.C,SW3*%
X112166400Y-99364800D03*
D11*
X117246400Y-99364800D03*
D10*
X122326400Y-99364800D03*
D12*
X119786400Y-94284800D03*
X113436400Y-96824800D03*
%TD*%
D10*
%TO.C,SW6*%
X131216400Y-99364800D03*
D11*
X136296400Y-99364800D03*
D10*
X141376400Y-99364800D03*
D12*
X138836400Y-94284800D03*
X132486400Y-96824800D03*
%TD*%
D10*
%TO.C,SW8*%
X150368000Y-80314800D03*
D11*
X155448000Y-80314800D03*
D10*
X160528000Y-80314800D03*
D12*
X157988000Y-75234800D03*
X151638000Y-77774800D03*
%TD*%
D10*
%TO.C,SW10*%
X169418000Y-61163200D03*
D11*
X174498000Y-61163200D03*
D10*
X179578000Y-61163200D03*
D12*
X177038000Y-56083200D03*
X170688000Y-58623200D03*
%TD*%
D10*
%TO.C,SW2*%
X112217200Y-80264000D03*
D11*
X117297200Y-80264000D03*
D10*
X122377200Y-80264000D03*
D12*
X119837200Y-75184000D03*
X113487200Y-77724000D03*
%TD*%
D10*
%TO.C,SW11*%
X169570400Y-80264000D03*
D11*
X174650400Y-80264000D03*
D10*
X179730400Y-80264000D03*
D12*
X177190400Y-75184000D03*
X170840400Y-77724000D03*
%TD*%
D16*
%TO.C,U1*%
X201540000Y-54238400D03*
X201540000Y-56778400D03*
X201540000Y-59318400D03*
X201540000Y-61858400D03*
X201540000Y-64398400D03*
X201540000Y-66938400D03*
X201540000Y-69478400D03*
X184540000Y-69478400D03*
X184540000Y-66938400D03*
X184540000Y-64398400D03*
X184540000Y-61858400D03*
X184540000Y-59318400D03*
X184540000Y-56778400D03*
X184540000Y-54238400D03*
D17*
X190940000Y-62458400D03*
D18*
X197540000Y-61458400D03*
X197540000Y-59558400D03*
D19*
X194310000Y-53238400D03*
X194310000Y-55818400D03*
X194310000Y-58358400D03*
X191770000Y-58358400D03*
X191770000Y-55818400D03*
X191770000Y-53238400D03*
%TD*%
M02*
