M48
; DRILL file KiCad 10.0.3 date 2026-08-30T20:23:03
; FORMAT={-:-/ absolute / metric / decimal}
; #@! TF.CreationDate,2026-08-30T20:23:03-05:00
; #@! TF.GenerationSoftware,Kicad,Pcbnew,10.0.3
; #@! TF.FileFunction,NonPlated,1,2,NPTH
FMAT,2
METRIC
; #@! TA.AperFunction,NonPlated,NPTH,ComponentDrill
T1C1.700
; #@! TA.AperFunction,NonPlated,NPTH,ComponentDrill
T2C4.000
%
G90
G05
T1
X112.166Y-61.214
X112.166Y-99.365
X112.217Y-80.264
X122.326Y-61.214
X122.326Y-99.365
X122.377Y-80.264
X131.216Y-99.365
X131.262Y-61.214
X131.355Y-80.301
X141.376Y-99.365
X141.422Y-61.214
X141.515Y-80.301
X150.317Y-61.163
X150.368Y-80.315
X150.368Y-99.365
X160.477Y-61.163
X160.528Y-80.315
X160.528Y-99.365
X169.418Y-61.163
X169.57Y-80.264
X169.621Y-99.466
X179.578Y-61.163
X179.73Y-80.264
X179.781Y-99.466
T2
X117.246Y-61.214
X117.246Y-99.365
X117.297Y-80.264
X136.296Y-99.365
X136.342Y-61.214
X136.435Y-80.301
X155.397Y-61.163
X155.448Y-80.315
X155.448Y-99.365
X174.498Y-61.163
X174.65Y-80.264
X174.701Y-99.466
M30
